# xmcd CD database file
#
# Track frame offsets:
#	150
#	11329
#	17236
#	30858
#	36647
#	42326
#	54739
#	64290
#	69954
#	78200
#	92096
#	110240
#	119150
#	126863
#	140865
#
# Disc length: 1990 seconds
#
# Revision: 1
# Processed by: cddbd v1.4PL0 Copyright (c) Steve Scherf et al.
# Submitted via: CDex 1.50
#
DISCID=d907c40f
DTITLE=Willie Nelson - Crazy: The Demo Sessions
DYEAR=2003
DGENRE=Country
TTITLE0=Opportunity To Cry
TTITLE1=Three Days
TTITLE2=Undo The Right
TTITLE3=What Do You Think Of Her Now
TTITLE4=I've Just Destroyed The World
TTITLE5=Permanently Lonely
TTITLE6=Are You Sure
TTITLE7=Darkness On The Face Of The Earth
TTITLE8=Things To Remember
TTITLE9=A Moment Isn't Very Long
TTITLE10=Crazy
TTITLE11=The Local Memory
TTITLE12=I Gotta Get Drunk
TTITLE13=Something To Think About
TTITLE14=I'm Still Here
EXTD=YEAR: 2003
EXTT0=
EXTT1=
EXTT2=
EXTT3=
EXTT4=
EXTT5=
EXTT6=
EXTT7=
EXTT8=
EXTT9=
EXTT10=
EXTT11=
EXTT12=
EXTT13=
EXTT14=
PLAYORDER=
